<?xml version="1.0" standalone="no"?>
<!DOCTYPE svg PUBLIC "-//W3C//DTD SVG 20010904//EN"
 "http://www.w3.org/TR/2001/REC-SVG-20010904/DTD/svg10.dtd">
<svg version="1.0" xmlns="http://www.w3.org/2000/svg"
 width="300.000000pt" height="303.000000pt" viewBox="0 0 300.000000 303.000000"
 preserveAspectRatio="xMidYMid meet">
<metadata>
Created by potrace 1.10, written by Peter Selinger 2001-2011
</metadata>
<g transform="translate(0.000000,303.000000) scale(0.100000,-0.100000)"
fill="#000000" stroke="none">
<path d="M1344 2927 c-84 -62 -176 -165 -229 -254 -42 -72 -72 -141 -63 -147
1 -1 24 -14 50 -29 l46 -27 17 51 c10 28 39 83 66 123 51 76 169 196 194 196
25 0 173 -119 220 -178 193 -240 190 -595 -9 -906 -35 -55 -36 -57 -29 -131
l6 -76 23 22 c42 39 124 167 169 262 66 139 88 242 89 412 1 158 -9 212 -61
325 -63 138 -197 283 -336 364 -73 43 -86 42 -153 -7z"/>
<path d="M2195 2634 c-108 -14 -178 -29 -235 -51 -36 -14 -66 -26 -67 -27 -1
-1 5 -26 13 -55 13 -41 20 -52 33 -47 9 3 50 17 91 32 62 23 96 28 203 32 86
3 132 1 141 -7 22 -18 39 -151 33 -253 -10 -191 -85 -336 -238 -467 -103 -87
-232 -153 -369 -189 -103 -26 -106 -28 -160 -86 l-55 -59 80 8 c386 35 727
285 827 605 43 139 26 481 -28 534 -18 18 -203 39 -269 30z"/>
<path d="M617 2539 c-108 -12 -203 -44 -212 -71 -14 -47 -18 -265 -6 -334 13
-70 47 -183 60 -196 3 -4 30 0 58 9 l51 16 -19 50 c-45 114 -67 339 -36 380
28 38 247 52 371 23 109 -26 189 -71 283 -159 131 -124 211 -261 255 -432 20
-82 23 -87 80 -136 l58 -50 0 34 c0 52 -27 185 -54 263 -53 155 -130 276 -253
395 -129 125 -257 188 -426 209 -90 11 -111 11 -210 -1z"/>
<path d="M2476 1924 c-30 -54 -30 -54 -12 -54 40 0 180 -86 256 -157 105 -99
108 -104 76 -156 -71 -119 -224 -244 -353 -288 -60 -21 -86 -24 -218 -24 -125
0 -163 4 -227 22 -93 27 -173 63 -254 114 -59 37 -65 39 -145 39 l-84 -1 50
-45 c111 -100 303 -196 460 -229 182 -39 402 -17 542 53 151 76 312 242 369
379 15 35 15 37 -22 90 -63 92 -191 204 -292 257 -50 25 -97 46 -105 46 -9 0
-27 -21 -41 -46z"/>
<path d="M595 1924 c-77 -16 -190 -66 -260 -114 -66 -46 -161 -145 -214 -225
-68 -101 -74 -120 -56 -155 27 -53 123 -156 197 -213 62 -48 225 -135 232
-125 2 2 15 23 29 47 l26 45 -87 43 c-94 46 -196 125 -251 193 -40 50 -38 54
38 150 149 187 330 269 565 257 164 -9 290 -49 441 -141 l70 -42 80 5 80 6
-80 63 c-86 67 -214 137 -310 170 -150 51 -357 66 -500 36z"/>
<path d="M1270 1575 c-359 -57 -666 -296 -761 -593 -43 -135 -35 -397 16 -518
12 -29 19 -33 72 -41 93 -13 271 -7 343 11 93 24 171 58 166 72 -3 7 -10 31
-17 53 -10 32 -16 40 -28 35 -111 -50 -266 -77 -376 -67 -56 5 -66 9 -70 27
-21 92 -25 121 -25 197 0 99 25 210 66 291 99 195 323 356 576 413 69 15 76
19 126 76 53 58 53 59 25 58 -15 -1 -66 -7 -113 -14z"/>
<path d="M1344 1454 c-99 -120 -176 -270 -213 -414 -32 -121 -39 -291 -17
-400 44 -219 204 -426 417 -540 l57 -30 58 43 c61 45 155 138 200 197 28 38
104 187 104 205 0 10 -89 60 -95 53 -1 -2 -21 -43 -45 -92 -35 -75 -58 -105
-135 -183 l-93 -94 -31 19 c-231 140 -353 365 -337 622 10 164 55 300 148 447
l39 61 -8 78 -8 78 -41 -50z"/>
<path d="M1443 1355 c20 -254 159 -527 349 -684 73 -60 197 -124 282 -146 135
-34 301 -29 449 12 74 20 78 30 85 194 5 142 -12 256 -53 347 -26 57 -26 57
-76 41 -19 -6 -39 -12 -46 -14 -9 -3 -5 -19 12 -57 32 -71 55 -190 55 -285 0
-117 -1 -119 -73 -132 -155 -26 -249 -22 -374 20 -159 52 -313 201 -412 396
-31 63 -80 217 -82 257 0 13 -24 43 -61 76 l-61 55 6 -80z"/>
</g>
</svg>
